<?xml version="1.0" encoding="utf-8"?>
<!-- Generator: Adobe Illustrator 26.0.0, SVG Export Plug-In . SVG Version: 6.00 Build 0)  -->
<svg version="1.1" id="图层_1" xmlns="http://www.w3.org/2000/svg" xmlns:xlink="http://www.w3.org/1999/xlink" x="0px" y="0px"
	 viewBox="0 0 16 16" style="enable-background:new 0 0 16 16;" xml:space="preserve">
<style type="text/css">
	.st0{fill:#525252;}
	.st1{fill-rule:evenodd;clip-rule:evenodd;fill:#525252;}
	.st2{clip-path:url(#SVGID_00000088848316626547611300000000300518515807842216_);}
	.st3{fill:#CCCCCC;}
	.st4{fill-rule:evenodd;clip-rule:evenodd;fill:#FFEEEE;}
	.st5{fill:none;stroke:#525252;stroke-miterlimit:10;}
	
		.st6{fill-rule:evenodd;clip-rule:evenodd;fill:none;stroke:#525252;stroke-linecap:round;stroke-linejoin:round;stroke-miterlimit:10;}
</style>
<path class="st1" d="M9.9,2.3H6.4V2.1c0,0,0-0.1,0-0.1c0,0,0-0.1,0-0.1c0,0,0-0.1-0.1-0.1c0,0,0-0.1-0.1-0.1c0,0-0.1,0-0.1-0.1
	c0,0-0.1,0-0.1-0.1c0,0-0.1,0-0.1,0c0,0-0.1,0-0.1,0c0,0-0.1,0-0.1,0c0,0-0.1,0-0.1,0c0,0-0.1,0-0.1,0.1c0,0-0.1,0-0.1,0.1
	c0,0-0.1,0.1-0.1,0.1c0,0,0,0.1-0.1,0.1c0,0,0,0.1,0,0.1c0,0,0,0.1,0,0.1v0.3H2.9c-0.3,0-0.6,0.1-0.8,0.3C1.9,2.8,1.7,3.1,1.7,3.4
	v9.9c0,0.8,0.4,1.3,1.2,1.3h10.7c0.3,0,0.6-0.3,0.6-0.6l0-3.5v-7c0-0.3-0.1-0.6-0.4-0.8c-0.2-0.2-0.5-0.3-0.8-0.3h-1.9V2.1
	c0,0,0-0.1,0-0.1c0,0,0-0.1,0-0.1c0,0,0-0.1-0.1-0.1c0,0,0-0.1-0.1-0.1c0,0-0.1,0-0.1-0.1c0,0-0.1,0-0.1-0.1c0,0-0.1,0-0.1,0
	c0,0-0.1,0-0.1,0c0,0-0.1,0-0.1,0c0,0-0.1,0-0.1,0c0,0-0.1,0-0.1,0.1c0,0-0.1,0-0.1,0.1c0,0-0.1,0.1-0.1,0.1c0,0,0,0.1-0.1,0.1
	c0,0,0,0.1,0,0.1c0,0,0,0.1,0,0.1V2.3z M6.4,3.8V3.5h3.5v0.3c0,0,0,0.1,0,0.1c0,0,0,0.1,0,0.1C10,4,10,4,10,4.1c0,0,0,0.1,0.1,0.1
	c0,0,0.1,0,0.1,0.1c0,0,0.1,0,0.1,0.1c0,0,0.1,0,0.1,0c0,0,0.1,0,0.1,0c0,0,0.1,0,0.1,0c0,0,0.1,0,0.1,0c0,0,0.1,0,0.1-0.1
	c0,0,0.1,0,0.1-0.1c0,0,0.1-0.1,0.1-0.1C11,4,11,4,11.1,4c0,0,0-0.1,0-0.1c0,0,0-0.1,0-0.1V3.5H13v1.4H2.9V3.5h2.2v0.3
	c0,0,0,0.1,0,0.1c0,0,0,0.1,0,0.1c0,0,0,0.1,0.1,0.1c0,0,0,0.1,0.1,0.1c0,0,0.1,0,0.1,0.1c0,0,0.1,0,0.1,0.1c0,0,0.1,0,0.1,0
	c0,0,0.1,0,0.1,0c0,0,0.1,0,0.1,0c0,0,0.1,0,0.1,0c0,0,0.1,0,0.1-0.1c0,0,0.1,0,0.1-0.1c0,0,0.1-0.1,0.1-0.1c0,0,0-0.1,0.1-0.1
	c0,0,0-0.1,0-0.1C6.4,3.8,6.4,3.8,6.4,3.8z M2.9,6v7.2l0,0.1H13l0-3V6H2.9z M7.8,12.7c1.7,0,3.1-1.3,3.1-3c0-1.6-1.4-3-3.1-3
	s-3.1,1.3-3.1,3C4.7,11.3,6.1,12.7,7.8,12.7z M7.8,7.6c1.2,0,2.2,0.9,2.2,2.1c0,1.2-1,2.1-2.2,2.1s-2.2-0.9-2.2-2.1
	C5.6,8.5,6.6,7.6,7.8,7.6z"/>
<path class="st0" d="M10.5,4.5L10.5,4.5c-0.4,0-0.8-0.3-0.8-0.8V2.1c0-0.4,0.3-0.8,0.8-0.8h0c0.4,0,0.8,0.3,0.8,0.8v1.7
	C11.3,4.2,11,4.5,10.5,4.5z"/>
<path class="st0" d="M5.8,4.5L5.8,4.5C5.3,4.5,5,4.2,5,3.8V2.1c0-0.4,0.3-0.8,0.8-0.8h0c0.4,0,0.8,0.3,0.8,0.8v1.7
	C6.5,4.2,6.2,4.5,5.8,4.5z"/>
<polyline class="st6" points="7.6,8.5 7.6,9.7 8.6,10.5 "/>
</svg>
