<?xml version="1.0" encoding="utf-8"?>
<!-- Generator: Adobe Illustrator 26.0.0, SVG Export Plug-In . SVG Version: 6.00 Build 0)  -->
<svg version="1.1" id="图层_1" xmlns="http://www.w3.org/2000/svg" xmlns:xlink="http://www.w3.org/1999/xlink" x="0px" y="0px"
	 viewBox="0 0 16 16" style="enable-background:new 0 0 16 16;" xml:space="preserve">
<style type="text/css">
	.st0{fill:#525252;}
	.st1{fill-rule:evenodd;clip-rule:evenodd;fill:#525252;}
	.st2{clip-path:url(#SVGID_00000108274909450514552310000015992443778293810354_);}
	.st3{fill:#CCCCCC;}
	.st4{fill-rule:evenodd;clip-rule:evenodd;fill:#FFEEEE;}
</style>
<g>
	<path class="st1" d="M14,2.7h-3.1V2.2c0-0.4-0.3-0.6-0.6-0.6S9.6,1.9,9.6,2.2v0.5H5.7V2.2c0-0.4-0.3-0.6-0.6-0.6S4.4,1.9,4.4,2.2
		v0.5H2c-0.6,0-1,0.4-1,0.9v10c0,0.5,0.4,0.9,1,0.9h12c0.6,0,1-0.4,1-0.9v-10C15,3.1,14.6,2.7,14,2.7z M13.7,13.3H2.3V3.9h2.1V4
		c0,0.4,0.3,0.6,0.6,0.6S5.7,4.4,5.7,4V3.9h3.9V4c0,0.4,0.3,0.6,0.6,0.6s0.6-0.3,0.6-0.6V3.9h2.8V13.3z"/>
	<path class="st1" d="M6.6,6.4H4.1C3.8,6.4,3.5,6.7,3.5,7s0.3,0.6,0.6,0.6h1.7v0.8H4.7c-0.4,0-0.6,0.3-0.6,0.6v0
		c0,0.4,0.3,0.6,0.6,0.6h1.2v0.8H4.1c-0.4,0-0.6,0.3-0.6,0.6v0.1c0,0.4,0.3,0.6,0.6,0.6h2.4h0.1c0.4,0,0.6-0.3,0.6-0.6v-0.1V9.1v0
		v-2c0,0,0,0,0,0c0,0,0,0,0,0C7.3,6.7,7,6.4,6.6,6.4z"/>
	<path class="st1" d="M9.3,6.4c-0.5,0-0.9,0.4-0.9,0.9V11c0,0.5,0.4,0.9,0.9,0.9h1.8c0.5,0,0.9-0.4,0.9-0.9V7.3
		c0-0.5-0.4-0.9-0.9-0.9H9.3z M10.9,10.7H9.5V7.6h1.5V10.7z"/>
</g>
</svg>
