<?xml version="1.0" encoding="utf-8"?>
<!-- Generator: Adobe Illustrator 26.0.0, SVG Export Plug-In . SVG Version: 6.00 Build 0)  -->
<svg version="1.1" id="图层_1" xmlns="http://www.w3.org/2000/svg" xmlns:xlink="http://www.w3.org/1999/xlink" x="0px" y="0px"
	 viewBox="0 0 16 16" style="enable-background:new 0 0 16 16;" xml:space="preserve">
<style type="text/css">
	.st0{fill:#525252;}
	.st1{fill-rule:evenodd;clip-rule:evenodd;fill:#525252;}
	.st2{clip-path:url(#SVGID_00000171677543393630245520000009308720456689453718_);}
	.st3{fill:#CCCCCC;}
</style>
<g>
	<defs>
		<rect id="SVGID_1_" x="1.5" y="1.6" width="13.1" height="12.6"/>
	</defs>
	<clipPath id="SVGID_00000064346360865261683980000015424675993503543457_">
		<use xlink:href="#SVGID_1_"  style="overflow:visible;"/>
	</clipPath>
	<g style="clip-path:url(#SVGID_00000064346360865261683980000015424675993503543457_);">
		<path class="st1" d="M12.9,2.7H3.1C2.4,2.7,1.8,3.3,1.8,4v3.9c0,0.7,0.6,1.3,1.4,1.3h9.8c0.8,0,1.4-0.6,1.4-1.3V4
			C14.3,3.3,13.7,2.7,12.9,2.7z M2.8,4c0-0.1,0.1-0.3,0.3-0.3h9.8c0.2,0,0.3,0.1,0.3,0.3v3.9c0,0.1-0.1,0.3-0.3,0.3H3.1
			C3,8.2,2.8,8.1,2.8,7.9V4z"/>
		<path class="st0" d="M10,6.7L8.9,5.4C8.8,5.3,8.9,5.1,9,5.1h2.2c0.1,0,0.2,0.1,0.1,0.3l-1.1,1.4C10.2,6.8,10,6.8,10,6.7z"/>
		<path class="st1" d="M3.4,10.3v2.2c0,0.4,0.3,0.7,0.7,0.7H12c0.4,0,0.7-0.3,0.7-0.7v-2.2c0-0.3-0.2-0.5-0.5-0.5
			c-0.3,0-0.5,0.2-0.5,0.5v1.8H4.5v-1.8c0-0.3-0.2-0.5-0.5-0.5S3.4,10,3.4,10.3z"/>
	</g>
</g>
</svg>
