<?xml version="1.0" encoding="utf-8"?>
<!-- Generator: Adobe Illustrator 26.0.0, SVG Export Plug-In . SVG Version: 6.00 Build 0)  -->
<svg version="1.1" id="图层_1" xmlns="http://www.w3.org/2000/svg" xmlns:xlink="http://www.w3.org/1999/xlink" x="0px" y="0px"
	 viewBox="0 0 16 16" style="enable-background:new 0 0 16 16;" xml:space="preserve">
<style type="text/css">
	.st0{fill:#525252;}
	.st1{fill-rule:evenodd;clip-rule:evenodd;fill:#525252;}
	.st2{clip-path:url(#SVGID_00000055702486316771109400000013913065864125965987_);}
	.st3{fill:#CCCCCC;}
</style>
<path class="st1" d="M7.7,1.6C7.7,1.6,7.6,1.6,7.7,1.6c-0.4,0-0.6,0.2-0.6,0.5v2.6H4.4V3.1c0-0.8-0.6-1.4-1.4-1.4
	c-0.8,0-1.4,0.6-1.4,1.4v7.4c0,0.8,0.6,1.4,1.4,1.4c0.8,0,1.4-0.6,1.4-1.3h3v3.2c0,0.5,0.4,0.8,0.9,0.8h2.1c0.5,0,0.9-0.4,0.9-0.8
	v-3.2h2.6c0.3,0,0.6-0.3,0.6-0.6l0-3c0-1.2-1-2.3-2.3-2.3h-4V4.4h1.5C10.4,4.4,11,3.7,11,3c0-0.8-0.6-1.4-1.4-1.4L7.7,1.6L7.7,1.6z
	 M8.1,3.4h1.5c0.3,0,0.5-0.2,0.5-0.5S9.9,2.5,9.6,2.5H8.1V3.4z M3,2.6c-0.3,0-0.5,0.2-0.5,0.5v7.4c0,0.3,0.2,0.5,0.5,0.5
	s0.5-0.2,0.5-0.5V3.1C3.4,2.8,3.2,2.6,3,2.6z M7.1,6.9v-1H4.4v3.4h8.8l0-2.3c0-0.6-0.5-1-1.1-1h-4v0.7h0.5C8.8,6.6,9,6.8,9,7
	c0,0.3-0.2,0.5-0.5,0.5H7.6C7.4,7.5,7.1,7.3,7.1,7C7.1,7,7.1,7,7.1,6.9C7.1,6.9,7.1,6.9,7.1,6.9z M8.3,13.6v-2.8h1.9v2.8H8.3z"/>
</svg>
