<?xml version="1.0" encoding="utf-8"?>
<!-- Generator: Adobe Illustrator 26.0.0, SVG Export Plug-In . SVG Version: 6.00 Build 0)  -->
<svg version="1.1" id="图层_1" xmlns="http://www.w3.org/2000/svg" xmlns:xlink="http://www.w3.org/1999/xlink" x="0px" y="0px"
	 viewBox="0 0 16 16" style="enable-background:new 0 0 16 16;" xml:space="preserve">
<style type="text/css">
	.st0{fill:#525252;}
	.st1{fill-rule:evenodd;clip-rule:evenodd;fill:#525252;}
	.st2{clip-path:url(#SVGID_00000047768328154810250890000001977386173966986675_);}
	.st3{fill:#CCCCCC;}
	.st4{fill-rule:evenodd;clip-rule:evenodd;fill:#FFEEEE;}
	.st5{fill:none;stroke:#525252;stroke-miterlimit:10;}
	
		.st6{fill-rule:evenodd;clip-rule:evenodd;fill:none;stroke:#525252;stroke-linecap:round;stroke-linejoin:round;stroke-miterlimit:10;}
</style>
<g>
	<defs>
		<rect id="SVGID_1_" x="-76.8" y="1.6" width="13.1" height="12.6"/>
	</defs>
	<clipPath id="SVGID_00000088848697353090338500000010222575438798547358_">
		<use xlink:href="#SVGID_1_"  style="overflow:visible;"/>
	</clipPath>
	<g style="clip-path:url(#SVGID_00000088848697353090338500000010222575438798547358_);">
	</g>
</g>
<path class="st1" d="M4.8,5.7C4,5.3,3.6,4.7,3.6,4c0-0.8,0.5-1.4,1.5-1.9c0.9-0.4,1.9-0.6,3-0.6c3,0,4.6,0.8,4.6,2.5
	c0,0.6-0.3,1.1-0.9,1.5c1.2,1.4,2,3,2.6,4.6c0.4,1.1,0.2,2.1-0.5,3.1c-0.7,0.9-1.6,1.3-2.8,1.3H5.1c-1.2,0-2.1-0.4-2.8-1.3
	c-0.7-0.9-0.9-1.9-0.5-3c0.4-1.1,1.3-2.4,2.7-4C4.6,5.9,4.7,5.8,4.8,5.7z M11.5,4c0,0.8-1.1,1.2-3.3,1.2S4.8,4.8,4.8,4
	c0-0.8,1.1-1.2,3.3-1.2c1,0,1.8,0.2,2.5,0.5C11.2,3.5,11.5,3.7,11.5,4z M5.9,6.4C5.7,6.5,5.6,6.7,5.4,6.9C4.1,8.4,3.3,9.6,3,10.5
	c-0.2,0.7-0.1,1.3,0.3,1.9c0.4,0.6,1,0.9,1.8,0.9h6.1c0.8,0,1.4-0.3,1.8-0.9c0.4-0.6,0.5-1.2,0.3-1.9C12.7,9,12,7.7,10.9,6.4
	c-0.8,0.3-1.6,0.4-2.5,0.4C7.5,6.8,6.6,6.7,5.9,6.4z M7.5,10.1H6.3c0,0-0.1,0-0.1,0c0,0-0.1,0-0.1,0c0,0-0.1,0-0.1,0
	c0,0-0.1,0-0.1-0.1c0,0,0-0.1-0.1-0.1c0,0,0-0.1-0.1-0.1c0,0,0-0.1,0-0.1c0,0,0-0.1,0-0.1s0-0.1,0-0.1s0-0.1,0-0.1
	c0,0,0-0.1,0.1-0.1c0,0,0-0.1,0.1-0.1c0,0,0.1,0,0.1-0.1c0,0,0.1,0,0.1,0c0,0,0.1,0,0.1,0c0,0,0.1,0,0.1,0h0.5L5.9,8.3
	C5.8,8.2,5.7,8,5.7,7.8c0-0.3,0.2-0.6,0.5-0.6c0.1,0,0.3,0.1,0.4,0.2l1.4,1.4c0,0,0,0,0,0l0,0l1.4-1.4l0,0c0.1-0.1,0.2-0.1,0.4-0.1
	c0.2,0,0.3,0.1,0.4,0.2c0.1,0.1,0.1,0.2,0.1,0.4c0,0.2-0.1,0.3-0.2,0.4l0,0L9.5,9h0.5c0,0,0.1,0,0.1,0s0.1,0,0.1,0c0,0,0.1,0,0.1,0
	c0,0,0.1,0,0.1,0.1c0,0,0,0.1,0.1,0.1c0,0,0,0.1,0.1,0.1c0,0,0,0.1,0,0.1s0,0.1,0,0.1s0,0.1,0,0.1c0,0,0,0.1,0,0.1
	c0,0,0,0.1-0.1,0.1c0,0,0,0.1-0.1,0.1c0,0-0.1,0-0.1,0.1c0,0-0.1,0-0.1,0c0,0-0.1,0-0.1,0c0,0-0.1,0-0.1,0H8.7v0.7h1.2
	c0,0,0.1,0,0.1,0c0,0,0.1,0,0.1,0s0.1,0,0.1,0c0,0,0.1,0,0.1,0.1c0,0,0,0.1,0.1,0.1c0,0,0,0.1,0.1,0.1c0,0,0,0.1,0,0.1
	c0,0,0,0.1,0,0.1c0,0,0,0.1,0,0.1s0,0.1,0,0.1c0,0,0,0.1-0.1,0.1c0,0,0,0.1-0.1,0.1c0,0-0.1,0-0.1,0.1c0,0-0.1,0-0.1,0
	c0,0-0.1,0-0.1,0c0,0-0.1,0-0.1,0H8.7v0.5c0,0,0,0.1,0,0.1c0,0,0,0.1,0,0.1c0,0,0,0.1-0.1,0.1c0,0,0,0.1-0.1,0.1
	c0,0-0.1,0.1-0.1,0.1c0,0-0.1,0-0.1,0.1c0,0-0.1,0-0.1,0c0,0-0.1,0-0.1,0c0,0-0.1,0-0.1,0c0,0-0.1,0-0.1,0c0,0-0.1,0-0.1-0.1
	c0,0-0.1,0-0.1-0.1c0,0-0.1-0.1-0.1-0.1c0,0,0-0.1-0.1-0.1c0,0,0-0.1,0-0.1c0,0,0-0.1,0-0.1v-0.5H6.3c0,0-0.1,0-0.1,0
	c0,0-0.1,0-0.1,0c0,0-0.1,0-0.1,0c0,0-0.1,0-0.1-0.1c0,0,0-0.1-0.1-0.1c0,0,0-0.1-0.1-0.1c0,0,0-0.1,0-0.1s0-0.1,0-0.1
	c0,0,0-0.1,0-0.1c0,0,0-0.1,0-0.1c0,0,0-0.1,0.1-0.1c0,0,0-0.1,0.1-0.1c0,0,0.1,0,0.1-0.1c0,0,0.1,0,0.1,0c0,0,0.1,0,0.1,0
	c0,0,0.1,0,0.1,0h1.2V10.1z"/>
<path class="st0" d="M10.3,10.3H6.2c-0.3,0-0.6-0.3-0.6-0.6v0C5.5,9.3,5.8,9,6.2,9h4.1c0.3,0,0.6,0.3,0.6,0.6v0
	C10.9,10,10.7,10.3,10.3,10.3z"/>
<path class="st0" d="M10.3,12H5.9c-0.4,0-0.6-0.3-0.6-0.6v-0.1c0-0.4,0.3-0.6,0.6-0.6h4.3c0.4,0,0.6,0.3,0.6,0.6v0.1
	C10.9,11.7,10.6,12,10.3,12z"/>
<path class="st0" d="M8.1,13.1L8.1,13.1c-0.4,0-0.7-0.3-0.7-0.7V9.8C7.4,9.4,7.7,9,8.1,9h0c0.4,0,0.7,0.3,0.7,0.7v2.6
	C8.8,12.7,8.5,13.1,8.1,13.1z"/>
</svg>
