<?xml version="1.0" encoding="utf-8"?>
<!-- Generator: Adobe Illustrator 26.0.0, SVG Export Plug-In . SVG Version: 6.00 Build 0)  -->
<svg version="1.1" id="图层_1" xmlns="http://www.w3.org/2000/svg" xmlns:xlink="http://www.w3.org/1999/xlink" x="0px" y="0px"
	 viewBox="0 0 16 16" style="enable-background:new 0 0 16 16;" xml:space="preserve">
<style type="text/css">
	.st0{fill:#525252;}
	.st1{fill-rule:evenodd;clip-rule:evenodd;fill:#525252;}
	.st2{clip-path:url(#SVGID_00000014603390446107202950000001534361332106063260_);}
	.st3{fill:#CCCCCC;}
</style>
<path class="st1" d="M11.8,4.9c0,1.9-1.7,3.4-3.7,3.4S4.3,6.8,4.3,4.9C4.3,3,5.9,1.5,8,1.5S11.8,3,11.8,4.9z M10.4,4.9
	c0-1.2-1.1-2.2-2.4-2.2s-2.4,1-2.4,2.2c0,1.2,1.1,2.2,2.4,2.2S10.4,6.1,10.4,4.9z M1,14.5c0-3.1,1.5-5,4.4-5.9c0.2,0,0.3,0,0.5,0
	c0,0,0,0,0,0c0,0,0.1,0.1,0.2,0.2c0.8,0.8,1.5,1.5,2.1,2.1l2.1-2.1c0.1-0.1,0.2-0.2,0.3-0.2c0,0,0,0,0,0c0,0,0.1,0,0.2,0
	c1,0.1,1.9,0.8,2.9,2c1,1.2,1.4,2.5,1.4,3.9h-1.4c0-1.1-0.4-2.2-1.2-3.2c-0.6-0.7-1.1-1.2-1.6-1.4l-2.3,2.3c-0.3,0.3-0.8,0.3-1,0
	C7,11.6,6.3,10.9,5.4,9.9c-2,0.7-3,2.2-3,4.6H1z"/>
</svg>
