<?xml version="1.0" encoding="utf-8"?>
<!-- Generator: Adobe Illustrator 26.0.0, SVG Export Plug-In . SVG Version: 6.00 Build 0)  -->
<svg version="1.1" id="图层_1" xmlns="http://www.w3.org/2000/svg" xmlns:xlink="http://www.w3.org/1999/xlink" x="0px" y="0px"
	 viewBox="0 0 16 16" style="enable-background:new 0 0 16 16;" xml:space="preserve">
<style type="text/css">
	.st0{fill:#525252;}
	.st1{fill-rule:evenodd;clip-rule:evenodd;fill:#525252;}
	.st2{clip-path:url(#SVGID_00000041290230567276655380000005674905604022850192_);}
	.st3{fill:#CCCCCC;}
</style>
<path class="st0" d="M2.6,8.4l3.9,2.8V4.5H5v3.4L1.1,4.5v6.7h1.4V8.4z"/>
<path class="st1" d="M10.1,11.5c1.7,0,3-1.5,3-3.3c0-1.8-1.3-3.3-3-3.3c-1.7,0-3,1.5-3,3.3C7.1,10,8.5,11.5,10.1,11.5z M10.1,10.1
	c0.8,0,1.5-0.8,1.5-1.8S11,6.5,10.1,6.5c-0.8,0-1.5,0.8-1.5,1.8S9.3,10.1,10.1,10.1z"/>
<circle class="st0" cx="14.1" cy="10.5" r="1"/>
</svg>
