<?xml version="1.0" encoding="utf-8"?>
<!-- Generator: Adobe Illustrator 26.0.0, SVG Export Plug-In . SVG Version: 6.00 Build 0)  -->
<svg version="1.1" id="图层_1" xmlns="http://www.w3.org/2000/svg" xmlns:xlink="http://www.w3.org/1999/xlink" x="0px" y="0px"
	 viewBox="0 0 16 16" style="enable-background:new 0 0 16 16;" xml:space="preserve">
<style type="text/css">
	.st0{fill:#525252;}
	.st1{fill-rule:evenodd;clip-rule:evenodd;fill:#525252;}
	.st2{clip-path:url(#SVGID_00000044899058650477662830000017869165226837702817_);}
	.st3{fill:#CCCCCC;}
</style>
<g>
	<defs>
		<rect id="SVGID_1_" x="-17.8" y="1.6" width="13.1" height="12.6"/>
	</defs>
	<clipPath id="SVGID_00000174568632241282465420000016847506589219450292_">
		<use xlink:href="#SVGID_1_"  style="overflow:visible;"/>
	</clipPath>
	<g style="clip-path:url(#SVGID_00000174568632241282465420000016847506589219450292_);">
	</g>
</g>
<path class="st1" d="M14.4,8c0,3.6-2.9,6.4-6.4,6.4S1.6,11.6,1.6,8c0-3.6,2.9-6.4,6.4-6.4S14.4,4.5,14.4,8z M13.1,8
	c0-2.8-2.3-5.1-5.1-5.1S2.9,5.2,2.9,8s2.3,5.1,5.1,5.1S13.1,10.9,13.1,8z M10.6,8c0,1.4-1.1,2.6-2.6,2.6S5.4,9.5,5.4,8
	S6.6,5.5,8,5.5S10.6,6.6,10.6,8z M9.3,8c0-0.7-0.6-1.3-1.3-1.3S6.7,7.3,6.7,8S7.3,9.3,8,9.3S9.3,8.8,9.3,8z"/>
</svg>
