<?xml version="1.0" encoding="utf-8"?>
<!-- Generator: Adobe Illustrator 26.0.0, SVG Export Plug-In . SVG Version: 6.00 Build 0)  -->
<svg version="1.1" id="图层_1" xmlns="http://www.w3.org/2000/svg" xmlns:xlink="http://www.w3.org/1999/xlink" x="0px" y="0px"
	 viewBox="0 0 16 16" style="enable-background:new 0 0 16 16;" xml:space="preserve">
<style type="text/css">
	.st0{fill:#525252;}
	.st1{fill-rule:evenodd;clip-rule:evenodd;fill:#525252;}
	.st2{clip-path:url(#SVGID_00000036959578804960220540000011979390346645850530_);}
	.st3{fill:#CCCCCC;}
</style>
<path class="st0" d="M14,1.5H2c-0.6,0-1,0.4-1,1v11c0,0.6,0.4,1,1,1h12c0.6,0,1-0.4,1-1v-11C15,1.9,14.6,1.5,14,1.5z M13.7,13.2H2.3
	V2.8h11.3V13.2z"/>
<path class="st0" d="M8.3,5.1H3.8c-0.3,0-0.5-0.2-0.5-0.5V4.6c0-0.3,0.2-0.5,0.5-0.5h4.5c0.3,0,0.5,0.2,0.5,0.5v0.1
	C8.7,4.9,8.5,5.1,8.3,5.1z"/>
<path class="st0" d="M11.9,12.1H3.8c-0.3,0-0.5-0.2-0.5-0.5v-0.1c0-0.3,0.2-0.5,0.5-0.5h8.1c0.3,0,0.5,0.2,0.5,0.5v0.1
	C12.3,11.9,12.1,12.1,11.9,12.1z"/>
<path class="st0" d="M5.5,9.1V4.7c0-0.3,0.2-0.5,0.5-0.5h0.1c0.3,0,0.5,0.2,0.5,0.5v4.5c0,0.3-0.2,0.5-0.5,0.5H6
	C5.7,9.6,5.5,9.4,5.5,9.1z"/>
</svg>
