<?xml version="1.0" encoding="utf-8"?>
<!-- Generator: Adobe Illustrator 26.0.0, SVG Export Plug-In . SVG Version: 6.00 Build 0)  -->
<svg version="1.1" id="图层_1" xmlns="http://www.w3.org/2000/svg" xmlns:xlink="http://www.w3.org/1999/xlink" x="0px" y="0px"
	 viewBox="0 0 16 16" style="enable-background:new 0 0 16 16;" xml:space="preserve">
<style type="text/css">
	.st0{fill:#525252;}
	.st1{fill-rule:evenodd;clip-rule:evenodd;fill:#525252;}
	.st2{clip-path:url(#SVGID_00000067223882477126529260000016566860919361569935_);}
	.st3{fill:#CCCCCC;}
</style>
<path class="st1" d="M3.5,6.7h1.1c0.8,0,1.5-0.6,1.5-1.4C6.1,5.1,6.2,5,6.4,5h2.7c0.2,0,0.3,0.1,0.3,0.3c0,0.8,0.7,1.4,1.5,1.4h1.3
	c1,0,1.7-0.7,1.7-1.7V4.8c0-1-0.6-1.9-1.6-2.3l-0.5-0.2c-2.4-1-5-1-7.4-0.1L3.5,2.5c-1,0.4-1.6,1.3-1.6,2.3v0.3
	C1.9,6,2.6,6.7,3.5,6.7z M4.9,5.3c0,0.2-0.1,0.3-0.3,0.3H3.5c-0.2,0-0.4-0.2-0.4-0.4V4.9c0-0.6,0.4-1.1,0.9-1.3l0.8-0.3
	c2.1-0.8,4.4-0.8,6.5,0.1l0.5,0.2c0.5,0.2,0.9,0.7,0.9,1.3v0.2c0,0.3-0.2,0.5-0.5,0.5h-1.3c-0.2,0-0.3-0.1-0.3-0.3
	c0-0.8-0.7-1.4-1.5-1.4H6.4C5.6,3.8,4.9,4.5,4.9,5.3z M1.4,13c0,0.8,0.6,1.4,1.4,1.4H13c0.8,0,1.4-0.6,1.4-1.4v-1.5
	c0-0.5-0.2-1-0.5-1.4L12.1,8c-0.4-0.5-1.1-0.8-1.8-0.8H5.9c-0.6,0-1.2,0.3-1.7,0.7l-2.2,2.3c-0.4,0.4-0.6,0.9-0.6,1.5V13z M13.2,13
	c0,0.1-0.1,0.2-0.2,0.2H2.9c-0.1,0-0.2-0.1-0.2-0.2v-1.4c0-0.3,0.1-0.5,0.3-0.7l2.2-2.3c0.2-0.2,0.5-0.3,0.8-0.3h4.3
	c0.3,0,0.6,0.1,0.8,0.4l1.8,2.2c0.2,0.2,0.2,0.4,0.2,0.7V13z M11.1,10.9c0,1.2-1.1,1.7-3.2,1.7c-2.1,0-3.2-0.6-3.2-1.7
	c0-1.2,1.1-1.7,3.2-1.7S11.1,9.7,11.1,10.9z M10.2,10.9c0-0.6-0.8-0.9-2.3-0.9s-2.3,0.3-2.3,0.9c0,0.6,0.8,0.9,2.3,0.9
	C9.4,11.7,10.2,11.4,10.2,10.9z"/>
</svg>
