<?xml version="1.0" encoding="utf-8"?>
<!-- Generator: Adobe Illustrator 26.0.0, SVG Export Plug-In . SVG Version: 6.00 Build 0)  -->
<svg version="1.1" id="图层_1" xmlns="http://www.w3.org/2000/svg" xmlns:xlink="http://www.w3.org/1999/xlink" x="0px" y="0px"
	 viewBox="0 0 16 16" style="enable-background:new 0 0 16 16;" xml:space="preserve">
<style type="text/css">
	.st0{fill:#525252;}
	.st1{fill-rule:evenodd;clip-rule:evenodd;fill:#525252;}
	.st2{clip-path:url(#SVGID_00000107554740323336209150000000309812817321015441_);}
	.st3{fill:#CCCCCC;}
	.st4{fill-rule:evenodd;clip-rule:evenodd;fill:#FFEEEE;}
</style>
<g>
	<path class="st1" d="M13.5,3H2.3C1.9,3,1.6,2.7,1.6,2.3v0c0-0.4,0.3-0.7,0.7-0.7h11.2c0.4,0,0.7,0.3,0.7,0.7v0
		C14.2,2.7,13.9,3,13.5,3z"/>
</g>
<g>
	<path class="st1" d="M13.5,14.5H2.3c-0.4,0-0.7-0.3-0.7-0.7v0c0-0.4,0.3-0.7,0.7-0.7h11.2c0.4,0,0.7,0.3,0.7,0.7v0
		C14.2,14.2,13.9,14.5,13.5,14.5z"/>
</g>
<g>
	<path class="st0" d="M8,8.3c-2.6,0-4.7-2.1-4.7-4.7v-2h9.4v2C12.7,6.2,10.6,8.3,8,8.3z M4.3,2.6v1c0,2,1.7,3.7,3.7,3.7
		c2,0,3.7-1.7,3.7-3.7v-1H4.3z"/>
</g>
<g>
	<path class="st0" d="M12.7,14.2H3.3v-2c0-2.6,2.1-4.7,4.7-4.7s4.7,2.1,4.7,4.7V14.2z M4.3,13.2h7.4v-1c0-2-1.7-3.7-3.7-3.7
		c-2,0-3.7,1.7-3.7,3.7V13.2z"/>
</g>
<g>
	<path class="st1" d="M8.9,6.2H7.1c-0.4,0-0.7-0.3-0.7-0.7v0c0-0.4,0.3-0.7,0.7-0.7h1.8c0.4,0,0.7,0.3,0.7,0.7v0
		C9.5,5.9,9.2,6.2,8.9,6.2z"/>
</g>
<g>
	<path class="st1" d="M9.5,12.1H6.4c-0.4,0-0.7-0.3-0.7-0.7v0c0-0.4,0.3-0.7,0.7-0.7h3.1c0.4,0,0.7,0.3,0.7,0.7v0
		C10.2,11.8,9.9,12.1,9.5,12.1z"/>
</g>
</svg>
