<svg xmlns="http://www.w3.org/2000/svg" xmlns:xlink="http://www.w3.org/1999/xlink" width="132" height="55.0035400390625" viewBox="0 0 132 55.0035400390625" fill="none">
<path d="M96.958 31.8948L96.958 29.6604L106.449 29.6604C106.313 29.1152 106.177 28.5943 106.177 28.5943C106.041 28.0881 105.852 27.538 105.852 27.538L108.193 27.1145C108.382 27.6062 108.572 28.3071 108.572 28.3071C108.752 29.0032 108.941 29.6604 108.941 29.6604L118 29.6604L118 31.8948L96.958 31.8948ZM53.8762 34.5031L53.8762 31.1492C52.1227 31.5727 50.5975 31.8745 50.5975 31.8745L50.3109 29.4941C51.3601 29.3286 52.487 29.0803 52.487 29.0803C53.6187 28.8369 54.7213 28.5351 54.7213 28.5351C55.8337 28.2479 56.8683 27.9169 56.8683 27.9169C57.9175 27.5907 58.7869 27.2597 58.7869 27.2597L59.2775 29.5622C58.6072 29.8056 57.8203 30.0539 57.8203 30.0539C57.0334 30.3021 56.1494 30.5455 56.1494 30.5455L56.1494 34.5031L58.9764 34.5031L58.9764 36.7521L56.1494 36.7521C56.1494 37.7354 56.1057 38.6263 56.1057 38.6263C56.0668 39.5025 56.0231 40.3105 56.0231 40.3105L59.2775 40.3105L59.2775 42.4476L63.4646 42.4476L63.4646 40.0525L59.5738 40.0525L59.5738 37.789L63.4646 37.789L63.4646 35.3258L59.5738 35.3258L59.5738 33.0915L63.4646 33.0915L63.4646 30.6672L59.3553 30.6672L59.3553 28.4377L70.1823 28.4377L70.1823 30.6672L65.7378 30.6672L65.7378 33.0915L69.7063 33.0915L69.7063 35.3258L65.7378 35.3258L65.7378 37.789L69.7063 37.789L69.7063 40.0525L65.7378 40.0525L65.7378 42.4476L71.0663 42.4476L71.0663 44.6917L65.7378 44.6917L65.7378 49.6082L63.4646 49.6082L63.4646 44.6917L58.1604 44.6917L58.1604 42.5693L55.7657 42.5693C55.5471 43.7911 55.2217 44.8036 55.2217 44.8036C54.9108 45.8015 54.4493 46.6924 54.4493 46.6924C53.9976 47.5978 53.4001 48.4302 53.4001 48.4302C52.8027 49.2675 52.0255 50.1145 52.0255 50.1145L50 48.5665C50.7335 47.773 51.3066 47.0915 51.3066 47.0915C51.8652 46.4052 52.283 45.7042 52.283 45.7042C52.7055 45.0081 52.9921 44.2681 52.9921 44.2681C53.2787 43.5136 53.4681 42.5693 53.4681 42.5693L50 42.5693L50 40.3105L53.7547 40.3105C53.8082 39.5317 53.8373 38.6652 53.8373 38.6652C53.8762 37.789 53.8762 36.7521 53.8762 36.7521L50.7626 36.7521L50.7626 34.5031L53.8762 34.5031ZM76.1034 30.9837C75.6371 30.3411 75.1902 29.7667 75.1902 29.7667C74.7288 29.1923 74.3742 28.7785 74.3742 28.7785L76.1714 27.2597C76.4968 27.6297 76.9437 28.1359 76.9437 28.1359C77.3955 28.6276 77.8278 29.1923 77.8278 29.1923C78.2795 29.7229 78.6972 30.2583 78.6972 30.2583C79.1052 30.7938 79.3918 31.2465 79.3918 31.2465L77.6529 33.2424C77.3955 32.8189 76.9874 32.2152 76.9874 32.2152C76.5648 31.6165 76.1034 30.9837 76.1034 30.9837ZM85.8001 32.4204L92.1244 32.4204L92.003 37.1423L94.6308 37.1423L94.6308 39.3912L79.301 39.3912L79.301 37.1423L82.7691 37.1423L83.2063 34.5574L80.4716 34.5574L80.4716 32.4204L83.5318 32.4204L83.9106 30.1714L80.0636 30.1714L80.0636 28.0101L93.5136 28.0101L93.5136 30.1714L86.1839 30.1714L85.8001 32.4204ZM99.9885 33.5048L114.964 33.5048L114.964 35.6661L99.9885 35.6661L99.9885 33.5048ZM85.4771 34.5577L85.04 37.1474L89.6496 37.1474L89.7467 34.5577L85.4771 34.5577ZM78.246 34.6545L78.246 44.5023L80.3298 42.7206L81.2138 45.0086C80.9272 45.2276 80.4124 45.7047 80.4124 45.7047C79.8926 46.172 79.2952 46.7318 79.2952 46.7318C78.6831 47.3062 78.0711 47.8952 78.0711 47.8952C77.4591 48.4842 76.9685 48.9662 76.9685 48.9662L75.4482 47.1017C75.8562 46.7464 75.9242 46.3618 75.9242 46.3618C75.9922 45.9821 75.9922 45.4856 75.9922 45.4856L75.9922 36.9132L73.5149 36.9132L73.5149 34.6545L78.246 34.6545ZM99.9885 37.2687L114.964 37.2687L114.964 39.4301L99.9885 39.4301L99.9885 37.2687ZM92.8234 49.5158L90.4433 49.5158L90.4433 48.3621L83.5313 48.3621L83.5313 49.5158L81.2337 49.5158L81.2337 40.8996L92.8234 40.8996L92.8234 49.5158ZM115.562 49.3791L113.197 49.3791L113.197 48.1767L101.719 48.1767L101.719 49.4083L99.392 49.4083L99.392 40.9722L115.562 40.9722L115.562 49.3791ZM83.5366 46.181L90.4438 46.181L90.4438 43.1143L83.5366 43.1143L83.5366 46.181ZM113.197 45.9615L113.197 43.2111L101.719 43.2111L101.719 45.9615L113.197 45.9615Z" fill-rule="evenodd"  fill="#121B2B" >
</path>
<path d="M60 11.2716C62.9258 11.2716 65.2683 8.91063 65.2683 5.99818C65.2683 3.10183 62.9096 0.728376 60 0.728376C57.0763 0.728376 54.7317 3.08775 54.7317 5.99818C54.7317 8.89453 57.0904 11.2716 60 11.2716ZM60 12C56.6863 12 54 9.29681 54 5.99818C54 2.68548 56.6722 0 60 0C63.3137 0 66 2.69956 66 5.99818C66 9.31291 63.3299 12 60 12Z"   fill="#707070" >
</path>
<path d="M126 32.2716C128.926 32.2716 131.268 29.9106 131.268 26.9982C131.268 24.1018 128.91 21.7284 126 21.7284C123.076 21.7284 120.732 24.0877 120.732 26.9982C120.732 29.8945 123.09 32.2716 126 32.2716ZM126 33C122.686 33 120 30.2968 120 26.9982C120 23.6855 122.672 21 126 21C129.314 21 132 23.6996 132 26.9982C132 30.3129 129.33 33 126 33Z"   fill="#707070" >
</path>
<path d="M57.4058 9L57.4058 3L60.6237 3C61.8294 3 62.5259 3.43768 62.5259 3.43768C63.2225 3.87191 63.2225 4.68869 63.2225 4.68869C63.2225 5.32625 62.7337 5.75359 62.7337 5.75359C62.253 6.16025 61.365 6.305 61.365 6.305L63.4058 9L62.3548 9L60.3956 6.36359L58.3182 6.36359L58.3182 9L57.4058 9ZM58.3162 5.82452L60.5402 5.82452C61.3712 5.82452 61.8396 5.52124 61.8396 5.52124C62.308 5.23175 62.308 4.69758 62.308 4.69758C62.308 4.13583 61.8518 3.85668 61.8518 3.85668C61.3834 3.57408 60.5402 3.57408 60.5402 3.57408L58.3162 3.57408L58.3162 5.82452Z" fill-rule="evenodd"  fill="#707070" >
</path>
<path d="M123.406 30L123.406 24L126.624 24C127.829 24 128.526 24.4377 128.526 24.4377C129.222 24.8719 129.222 25.6887 129.222 25.6887C129.222 26.3263 128.734 26.7536 128.734 26.7536C128.253 27.1603 127.365 27.305 127.365 27.305L129.406 30L128.355 30L126.396 27.3636L124.318 27.3636L124.318 30L123.406 30ZM124.316 26.8245L126.54 26.8245C127.371 26.8245 127.84 26.5212 127.84 26.5212C128.308 26.2318 128.308 25.6976 128.308 25.6976C128.308 25.1358 127.852 24.8567 127.852 24.8567C127.383 24.5741 126.54 24.5741 126.54 24.5741L124.316 24.5741L124.316 26.8245Z" fill-rule="evenodd"  fill="#707070" >
</path>
<path d="M0.227331 43.4353C-0.214349 35.1451 -1.2214 16.2429 10.9604 7.67271L20.1804 1.91271L20.1996 1.90087C21.6192 1.02486 24.7942 -0.934394 27.8304 1.91271C30.9204 4.78271 37.0204 17.7327 37.0204 26.3527C38.9004 22.9027 43.1604 14.8627 41.6104 9.10271L41.6104 9.07271C40.6804 6.89271 38.6004 1.91271 41.6104 0.482706C44.7004 -0.947294 52.3504 0.482706 49.2904 9.10271C46.2404 17.7327 35.5104 42.1627 27.8304 47.9227C20.1804 53.6727 3.31039 62.3027 0.230392 43.6227L0.230392 43.4927L0.227331 43.4353ZM9.57009 27.8351C11.4501 26.0751 15.6701 22.1451 20.2301 23.5751C24.8301 25.0051 27.8801 35.0551 24.8301 43.7151L24.8679 43.6704C26.728 41.467 30.9497 36.4664 29.4201 27.8651C27.8801 19.2451 24.5601 11.5651 23.2801 9.19511C21.9101 9.61511 18.7201 10.6251 15.6001 10.6251C12.5501 10.6251 11.0401 13.5251 11.0401 16.3851C11.0401 19.2451 9.97009 25.5251 9.50009 27.8651C9.53009 27.8651 9.53009 27.8351 9.57009 27.8351ZM15.6172 48.0162L15.6472 48.0162C21.7472 36.4962 18.6972 30.7362 17.1872 29.3062C9.54719 25.0162 8.43719 40.9562 7.96719 47.9162L7.96719 48.0162C9.47719 46.5862 13.7672 47.5562 15.6172 48.0162Z" fill-rule="evenodd"  fill="url(#linear_fill_39_10)" >
</path>
<defs>
<linearGradient id="linear_fill_39_10" x1="0" y1="27.501708984375" x2="49.9990234375" y2="27.501708984375" gradientUnits="userSpaceOnUse">
<stop offset="0" stop-color="#0D59FF"  />
<stop offset="1" stop-color="#0077FF"  />
</linearGradient>
</defs>
</svg>
