<svg xmlns="http://www.w3.org/2000/svg" xmlns:xlink="http://www.w3.org/1999/xlink" width="16" height="16" viewBox="0 0 16 16" fill="none">
<path   fill="rgba(51, 51, 51, 1)"  d="M2.3335 1.33333L13.6668 1.33333C14.5873 1.33333 15.3335 2.07953 15.3335 3L15.3335 13C15.3335 13.9205 14.5873 14.6667 13.6668 14.6667L2.3335 14.6667C1.41302 14.6667 0.666829 13.9205 0.666829 13L0.666829 3C0.666829 2.07953 1.41302 1.33333 2.3335 1.33333ZM2.3335 2.66667C2.1494 2.66667 2.00016 2.81591 2.00016 3L2.00016 13C2.00016 13.1841 2.1494 13.3333 2.3335 13.3333L13.6668 13.3333C13.8509 13.3333 14.0002 13.1841 14.0002 13L14.0002 3C14.0002 2.81591 13.8509 2.66667 13.6668 2.66667L2.3335 2.66667Z">
</path>
<path    stroke="rgba(51, 51, 51, 1)" stroke-width="1.3333333333333333" stroke-linejoin="round" stroke-linecap="round"  d="M1.3335 4.66669L14.6668 4.66669">
</path>
<g >
<path     fill="#333333"  d="M3.4004 11.104L4.0208 11.104L4.0208 9.7972C4.0208 9.4232 3.9636 9.014 3.9372 8.662L3.9592 8.662L4.2892 9.3616L5.2264 11.104L5.8908 11.104L5.8908 7.8436L5.2748 7.8436L5.2748 9.146C5.2748 9.5156 5.3276 9.9468 5.3628 10.2856L5.3408 10.2856L5.0108 9.5816L4.0648 7.8436L3.4004 7.8436L3.4004 11.104ZM6.696 11.104L8.742 11.104L8.742 10.5584L7.3472 10.5584L7.3472 9.6872L8.4868 9.6872L8.4868 9.1416L7.3472 9.1416L7.3472 8.3892L8.6936 8.3892L8.6936 7.8436L6.696 7.8436L6.696 11.104ZM9.71 11.104L10.5064 11.104L10.8628 9.4892C10.9112 9.2384 10.9596 8.9876 11.008 8.7412L11.0256 8.7412C11.0608 8.9876 11.1092 9.2384 11.162 9.4892L11.5272 11.104L12.3368 11.104L12.9396 7.8436L12.3236 7.8436L12.064 9.4364C12.0156 9.7752 11.9672 10.1228 11.9188 10.4748L11.8968 10.4748C11.8264 10.1228 11.7648 9.7708 11.69 9.4364L11.3116 7.8436L10.7528 7.8436L10.3788 9.4364C10.3084 9.7752 10.238 10.1228 10.172 10.4748L10.1544 10.4748C10.106 10.1228 10.0532 9.7796 10.0004 9.4364L9.7496 7.8436L9.0852 7.8436L9.71 11.104Z">
</path>
</g>
</svg>
