<svg xmlns="http://www.w3.org/2000/svg" xmlns:xlink="http://www.w3.org/1999/xlink" width="16" height="16" viewBox="0 0 16 16" fill="none">
<rect x="4" y="3.29998779296875" width="6.666666666666666" height="2.4" stroke="rgba(120, 70, 235, 1)" stroke-width="1" stroke-linejoin="round" stroke-linecap="round" >
</rect>
<circle cx="4.466471354166667" cy="7.666666666666667" r="0.6666666666666666"   fill="#7846EB" >
</circle>
<circle cx="4.466471354166667" cy="10.166666666666666" r="0.6666666666666666"   fill="#7846EB" >
</circle>
<circle cx="4.466471354166667" cy="12.666666666666666" r="0.6666666666666666"   fill="#7846EB" >
</circle>
<circle cx="7.066569010416667" cy="7.666666666666667" r="0.6666666666666666"   fill="#7846EB" >
</circle>
<circle cx="6.666666666666667" cy="10.166666666666666" r="0.6666666666666666"   fill="#7846EB" >
</circle>
<circle cx="6.666666666666667" cy="12.666666666666666" r="0.6666666666666666"   fill="#7846EB" >
</circle>
<circle cx="9.666666666666666" cy="7.666666666666667" r="0.6666666666666666"   fill="#7846EB" >
</circle>
<path d="M2.66667 0.733337L12 0.733337C12.6996 0.733337 13.2667 1.30044 13.2667 2L13.2667 9.87967C12.9008 9.70901 12.4948 9.61 12.0667 9.60066L12.0667 2C12.0667 1.96319 12.0368 1.93334 12 1.93334L2.66667 1.93334C2.62985 1.93334 2.6 1.96319 2.6 2L2.6 14C2.6 14.0368 2.62985 14.0667 2.66667 14.0667L9.38239 14.0667C9.66957 14.5781 10.1023 14.9968 10.6244 15.2667L2.66667 15.2667C1.96711 15.2667 1.4 14.6996 1.4 14L1.4 2C1.4 1.30044 1.96711 0.733337 2.66667 0.733337Z" fill-rule="evenodd"  fill="#7846EB" >
</path>
<circle cx="11" cy="12" r="3" stroke="rgba(120, 70, 235, 1)" stroke-width="1"   >
</circle>
<path    stroke="rgba(120, 70, 235, 1)" stroke-width="1" stroke-linejoin="round" stroke-linecap="round"  d="M9.2998 12L10.2998 13L12.2998 11">
</path>
</svg>
