<svg xmlns="http://www.w3.org/2000/svg" xmlns:xlink="http://www.w3.org/1999/xlink" width="18" height="18" viewBox="0 0 18 18" fill="none">
<path d="M3 1L12 1C13.1046 1 14 1.89543 14 3L14 8.23772C13.7044 8.13324 13.3935 8.06109 13.0716 8.0255L13.0716 5C13.0716 3.89543 12.1761 3 11.0716 3L3.9287 3C2.82413 3 1.9287 3.89543 1.9287 5L1.9287 14C1.9287 15.1046 2.82413 16 3.9287 16L9.04086 16C9.27157 16.3769 9.56035 16.7144 9.89474 17L3 17C1.89543 17 1 16.1046 1 15L1 3C1 1.89543 1.89543 1 3 1Z" fill-rule="evenodd"  fill="#2172FF" >
</path>
<path d="M11.7998 15.2C13.4567 15.2 14.7998 13.8569 14.7998 12.2C14.7998 10.5432 13.4567 9.20001 11.7998 9.20001C10.143 9.20001 8.7998 10.5432 8.7998 12.2C8.7998 13.8569 10.143 15.2 11.7998 15.2Z" stroke="rgba(33, 114, 255, 1)" stroke-width="1.2"   >
</path>
<path    stroke="rgba(33, 114, 255, 1)" stroke-width="1.3333333333333333"  stroke-linecap="round"  d="M14.4131 13.7256L16.3862 14.9163">
</path>
<path    stroke="rgba(33, 114, 255, 1)" stroke-width="1.3333333333333333"  stroke-linecap="round"  d="M5 5.79999L11.5 5.79999">
</path>
<path    stroke="rgba(33, 114, 255, 1)" stroke-width="1.3333333333333333"  stroke-linecap="round"  d="M5 9.15012L7 9.15012">
</path>
<path    stroke="rgba(33, 114, 255, 1)" stroke-width="1.3333333333333333"  stroke-linecap="round"  d="M5 12.5L7 12.5">
</path>
</svg>
