<svg xmlns="http://www.w3.org/2000/svg" xmlns:xlink="http://www.w3.org/1999/xlink" width="16" height="16" viewBox="0 0 16 16" fill="none">
<path    stroke="rgba(85, 86, 102, 1)" stroke-width="1.3333333333333333" stroke-linejoin="round" stroke-linecap="round"  d="M13.9266 6.86888C14.0109 6.30362 13.9832 5.72492 13.8437 5.16849C13.6594 4.43342 13.2798 3.73729 12.705 3.16245C12.1301 2.58763 11.434 2.20805 10.699 2.02374C10.1425 1.88421 9.5638 1.85658 8.99854 1.94084">
</path>
<path    stroke="rgba(85, 86, 102, 1)" stroke-width="1.3333333333333333" stroke-linejoin="round" stroke-linecap="round"  d="M11.3965 6.60115C11.4868 5.99562 11.2989 5.35662 10.8327 4.89048C10.3666 4.42435 9.72757 4.23639 9.12207 4.32665">
</path>
<path d="M4.79189 2.9314C5.03409 2.9314 5.25722 3.06274 5.37475 3.27448L6.19025 4.74342C6.29702 4.93575 6.30202 5.16839 6.20365 5.36515L5.41805 6.93636C5.41805 6.93636 5.64571 8.10686 6.59852 9.05966C7.55132 10.0125 8.71788 10.2362 8.71788 10.2362L10.2888 9.45073C10.4857 9.35226 10.7185 9.35736 10.9109 9.46433L12.384 10.2833C12.5956 10.4009 12.7268 10.624 12.7268 10.866L12.7268 12.5572C12.7268 13.4184 11.9268 14.0404 11.1108 13.7651C9.43481 13.1996 6.83325 12.1228 5.18432 10.4739C3.53536 8.82493 2.45863 6.22335 1.89311 4.54739C1.61777 3.73135 2.23981 2.9314 3.10102 2.9314L4.79189 2.9314Z" stroke="rgba(85, 86, 102, 1)" stroke-width="1.3333333333333333" stroke-linejoin="round"  >
</path>
</svg>
