<svg xmlns="http://www.w3.org/2000/svg" xmlns:xlink="http://www.w3.org/1999/xlink" width="16" height="16" viewBox="0 0 16 16" fill="none">
<rect x="4" y="3.5" width="6.666666666666666" height="3" stroke="rgba(120, 70, 235, 1)" stroke-width="1.2" stroke-linejoin="round" stroke-linecap="round" >
</rect>
<circle cx="4.466471354166667" cy="8.666666666666666" r="0.6666666666666666"   fill="#7846EB" >
</circle>
<circle cx="4.466471354166667" cy="10.666666666666666" r="0.6666666666666666"   fill="#7846EB" >
</circle>
<circle cx="4.466471354166667" cy="12.666666666666666" r="0.6666666666666666"   fill="#7846EB" >
</circle>
<circle cx="6.666666666666667" cy="8.666666666666666" r="0.6666666666666666"   fill="#7846EB" >
</circle>
<circle cx="6.666666666666667" cy="10.666666666666666" r="0.6666666666666666"   fill="#7846EB" >
</circle>
<circle cx="6.666666666666667" cy="12.666666666666666" r="0.6666666666666666"   fill="#7846EB" >
</circle>
<circle cx="8.666666666666666" cy="8.666666666666666" r="0.6666666666666666"   fill="#7846EB" >
</circle>
<path d="M2.66666 0.666659L12 0.666659C12.7364 0.666659 13.3333 1.26361 13.3333 1.99999L13.3333 9.91177C12.9317 9.71216 12.4789 9.59993 12 9.59993L12 1.99999L2.66666 1.99999L2.66666 14L9.34605 14C9.65616 14.5866 10.1551 15.058 10.7619 15.3333L2.66666 15.3333C1.93028 15.3333 1.33333 14.7364 1.33333 14L1.33333 1.99999C1.33333 1.26361 1.93028 0.666659 2.66666 0.666659Z" fill-rule="evenodd"  fill="#7846EB" >
</path>
<circle cx="11" cy="12" r="3" stroke="rgba(120, 70, 235, 1)" stroke-width="1"   >
</circle>
<path    stroke="rgba(120, 70, 235, 1)" stroke-width="1" stroke-linejoin="round" stroke-linecap="round"  d="M9.2998 12L10.2998 13L12.2998 11">
</path>
</svg>
