<?xml version="1.0" encoding="utf-8"?>
<!-- Generator: Adobe Illustrator 26.0.0, SVG Export Plug-In . SVG Version: 6.00 Build 0)  -->
<svg version="1.1" id="图层_1" xmlns="http://www.w3.org/2000/svg" xmlns:xlink="http://www.w3.org/1999/xlink" x="0px" y="0px"
	 viewBox="0 0 16 16" style="enable-background:new 0 0 16 16;" xml:space="preserve">
<style type="text/css">
	.st0{fill:#525252;}
	.st1{fill-rule:evenodd;clip-rule:evenodd;fill:#525252;}
	.st2{clip-path:url(#SVGID_00000031892122354120616040000001233526737008647303_);}
	.st3{fill:#CCCCCC;}
</style>
<path class="st1" d="M8.4,12c-0.2,0.1-0.5,0.1-0.7,0 M7.7,12c-3-1.8-4.5-3.8-4.5-6c0-1.2,0.5-2.3,1.4-3.1c0.9-0.9,2.1-1.3,3.4-1.3
	c1.3,0,2.5,0.4,3.4,1.3c1,0.9,1.4,1.9,1.4,3.1c0,2.2-1.5,4.2-4.5,6 M8.1,10.7c2.4-1.5,3.6-3.1,3.6-4.8c0-1-0.3-1.7-0.8-2.3
	c-0.6-0.6-1.5-0.9-2.8-0.9c-1,0-1.8,0.3-2.5,0.9c-0.7,0.6-1,1.4-1,2.2C4.5,7.6,5.7,9.2,8.1,10.7z M8.2,8.5c-1.2,0-2.3-1-2.3-2.2
	c0-1.2,1-2.2,2.3-2.2c1.2,0,2.3,1,2.3,2.2C10.5,7.5,9.4,8.5,8.2,8.5z M8.2,7.2c0.5,0,1-0.4,1-0.9c0-0.5-0.4-0.9-1-0.9
	c-0.5,0-1,0.4-1,0.9C7.2,6.8,7.7,7.2,8.2,7.2z M4.3,11.1c-0.1,0.1-0.2,0.1-0.3,0.1c-0.8,0.3-1.2,0.5-1.2,0.7c0,0.8,1.7,1.2,5.2,1.2
	c3.4,0,5.2-0.4,5.2-1.2c0-0.2-0.4-0.5-1.2-0.7c-0.3-0.1-0.5-0.3-0.5-0.6c0-0.2,0.1-0.3,0.2-0.4c0,0,0,0,0,0c0.1-0.1,0.3-0.2,0.4-0.2
	h0c0,0,0,0,0,0c0.1,0,0.1,0,0.2,0c1.4,0.5,2.1,1.1,2.1,1.9c0,0.8-0.7,1.4-2.1,1.9c-1.2,0.4-2.6,0.6-4.3,0.6s-3.1-0.2-4.3-0.6
	c-1.4-0.5-2.1-1.1-2.1-1.9c0-0.8,0.7-1.4,2.1-1.9c0.1,0,0.1,0,0.2,0c0.2,0,0.3,0.1,0.4,0.2c0,0,0,0,0,0c0.1,0.1,0.2,0.3,0.2,0.4l0,0
	v0l0,0C4.5,10.9,4.4,11,4.3,11.1C4.3,11.1,4.3,11.1,4.3,11.1z"/>
</svg>
