<?xml version="1.0" encoding="utf-8"?>
<!-- Generator: Adobe Illustrator 26.0.0, SVG Export Plug-In . SVG Version: 6.00 Build 0)  -->
<svg version="1.1" id="图层_1" xmlns="http://www.w3.org/2000/svg" xmlns:xlink="http://www.w3.org/1999/xlink" x="0px" y="0px"
	 viewBox="0 0 16 16" style="enable-background:new 0 0 16 16;" xml:space="preserve">
<style type="text/css">
	.st0{fill:#525252;}
	.st1{fill-rule:evenodd;clip-rule:evenodd;fill:#525252;}
	.st2{clip-path:url(#SVGID_00000128480417234060138480000014168426298411686553_);}
	.st3{fill:#CCCCCC;}
</style>
<g>
	<defs>
		<rect id="SVGID_1_" x="-57.8" y="1.6" width="13.1" height="12.6"/>
	</defs>
	<clipPath id="SVGID_00000095326269856898806250000010935692504203686048_">
		<use xlink:href="#SVGID_1_"  style="overflow:visible;"/>
	</clipPath>
	<g style="clip-path:url(#SVGID_00000095326269856898806250000010935692504203686048_);">
	</g>
</g>
<path class="st1" d="M3.3,1.6h9.6c0.9,0,1.6,0.7,1.6,1.6v9.7c0,0.9-0.7,1.6-1.6,1.6H3.3c-0.9,0-1.6-0.7-1.6-1.6V3.2
	C1.7,2.4,2.4,1.6,3.3,1.6z M3.3,2.9c-0.2,0-0.3,0.1-0.3,0.3v9.7c0,0.2,0.1,0.3,0.3,0.3h9.6c0.2,0,0.3-0.1,0.3-0.3V3.2
	c0-0.2-0.1-0.3-0.3-0.3H3.3z M11.9,6.6l-4.5,3.9c-0.3,0.2-0.6,0.2-0.9,0L4.4,8.1l0,0C4.2,8,4.2,7.9,4.2,7.7v0c0-0.3,0.3-0.6,0.6-0.6
	l0,0c0.1,0,0.2,0,0.2,0c0.1,0,0.1,0.1,0.2,0.1l0,0l1.8,1.9l4-3.5c0.1-0.1,0.3-0.2,0.4-0.2c0.2,0,0.3,0.1,0.4,0.2c0,0,0,0,0,0
	c0.1,0.1,0.2,0.3,0.2,0.4C12.2,6.3,12.1,6.5,11.9,6.6z"/>
</svg>
