<?xml version="1.0" encoding="utf-8"?>
<!-- Generator: Adobe Illustrator 26.0.0, SVG Export Plug-In . SVG Version: 6.00 Build 0)  -->
<svg version="1.1" id="图层_1" xmlns="http://www.w3.org/2000/svg" xmlns:xlink="http://www.w3.org/1999/xlink" x="0px" y="0px"
	 viewBox="0 0 16 16" style="enable-background:new 0 0 16 16;" xml:space="preserve">
<style type="text/css">
	.st0{fill:#525252;}
	.st1{fill-rule:evenodd;clip-rule:evenodd;fill:#525252;}
	.st2{clip-path:url(#SVGID_00000029008648429090668110000006061479922079015863_);}
	.st3{fill:#CCCCCC;}
</style>
<path class="st1" d="M8.1,2.1c0,0.1,0,0.2-0.1,0.3l-3,4C4.8,6.7,4.3,6.7,4,6.5L1.9,4.8C1.8,4.7,1.7,4.5,1.7,4.4C1.7,4,2,3.8,2.3,3.8
	c0.1,0,0.2,0,0.3,0.1l1.8,1.5l2.8-3.7c0.1-0.1,0.3-0.2,0.4-0.2C7.9,1.5,8.1,1.8,8.1,2.1z M9.8,1.6h3.5c0.5,0,0.9,0.4,0.9,0.9v3.7
	c0,0.5-0.4,0.9-0.9,0.9H9.8c-0.5,0-0.9-0.4-0.9-0.9V2.5C8.9,2,9.3,1.6,9.8,1.6z M10,6V2.7h3.2V6H10z M2.7,8.9h3.5
	c0.5,0,0.9,0.4,0.9,0.9v3.7c0,0.5-0.4,0.9-0.9,0.9H2.7c-0.5,0-0.9-0.4-0.9-0.9V9.8C1.8,9.3,2.2,8.9,2.7,8.9z M9.8,8.9h3.5
	c0.5,0,0.9,0.4,0.9,0.9v3.7c0,0.5-0.4,0.9-0.9,0.9H9.8c-0.5,0-0.9-0.4-0.9-0.9V9.8C8.9,9.3,9.3,8.9,9.8,8.9z M2.9,13.3V10h3.2v3.3
	H2.9z M10,13.3V10h3.2v3.3H10z"/>
</svg>
