<?xml version="1.0" encoding="utf-8"?>
<!-- Generator: Adobe Illustrator 26.0.0, SVG Export Plug-In . SVG Version: 6.00 Build 0)  -->
<svg version="1.1" id="图层_1" xmlns="http://www.w3.org/2000/svg" xmlns:xlink="http://www.w3.org/1999/xlink" x="0px" y="0px"
	 viewBox="0 0 16 16" style="enable-background:new 0 0 16 16;" xml:space="preserve">
<style type="text/css">
	.st0{fill:#525252;}
	.st1{fill-rule:evenodd;clip-rule:evenodd;fill:#525252;}
	.st2{clip-path:url(#SVGID_00000121240487766944321040000004705809959890569662_);}
	.st3{fill:#CCCCCC;}
</style>
<path class="st1" d="M2.1,5.1L1.2,5.6L1.4,6L1.2,5.6L0.9,5.7V6v4.4l1,0.6h2.2l0.7-0.7V5.7L3.5,5.1H2.1z M1.8,6.3v3.5l0.3,0.2h1.5
	l0.2-0.1V6.4L3.3,6.1h-1L1.8,6.3z"/>
<path class="st1" d="M7.9,5.1L7,5.6L7.2,6L7,5.6L6.7,5.7V6v4.4l1,0.6h2.1l0.7-0.7V5.7L9.4,5.1H7.9z M7.7,6.3v3.5L8,10.1h1.5l0.2-0.1
	V6.4L9.2,6.1h-1L7.7,6.3z"/>
<path class="st0" d="M5.2,10.2h0.9v1H5.2V10.2z"/>
<path class="st1" d="M12.4,5.1l-0.9,0.5L11.7,6l-0.2-0.4l-0.3,0.1V6v4.4l1,0.6h2.1l0.7-0.7V5.7l-1.3-0.6H12.4z M12.1,6.3v3.5
	l0.3,0.2H14l0.2-0.1V6.4l-0.5-0.2h-1L12.1,6.3z"/>
</svg>
