<?xml version="1.0" encoding="utf-8"?>
<!-- Generator: Adobe Illustrator 26.0.0, SVG Export Plug-In . SVG Version: 6.00 Build 0)  -->
<svg version="1.1" id="图层_1" xmlns="http://www.w3.org/2000/svg" xmlns:xlink="http://www.w3.org/1999/xlink" x="0px" y="0px"
	 viewBox="0 0 16 16" style="enable-background:new 0 0 16 16;" xml:space="preserve">
<style type="text/css">
	.st0{fill:#525252;}
	.st1{fill-rule:evenodd;clip-rule:evenodd;fill:#525252;}
	.st2{clip-path:url(#SVGID_00000018203157556529535220000009037940101494331033_);}
	.st3{fill:#CCCCCC;}
</style>
<path class="st0" d="M14.5,11.6H1.7C1.3,11.6,1,11.3,1,11v0c0-0.3,0.3-0.6,0.6-0.6h12.8c0.3,0,0.6,0.3,0.6,0.6v0
	C15.1,11.3,14.8,11.6,14.5,11.6z"/>
<path class="st0" d="M14.5,8.8H7.1c-0.3,0-0.6-0.3-0.6-0.6v0c0-0.3,0.3-0.6,0.6-0.6h7.4c0.3,0,0.6,0.3,0.6,0.6v0
	C15.1,8.5,14.8,8.8,14.5,8.8z"/>
<path class="st0" d="M14.5,5.9H7.5c-0.3,0-0.6-0.3-0.6-0.6v0c0-0.3,0.3-0.6,0.6-0.6h6.9c0.3,0,0.6,0.3,0.6,0.6v0
	C15.1,5.7,14.8,5.9,14.5,5.9z"/>
<path class="st0" d="M14.5,3.1H9.8c-0.3,0-0.6-0.3-0.6-0.6v0c0-0.3,0.3-0.6,0.6-0.6h4.6c0.3,0,0.6,0.3,0.6,0.6v0
	C15.1,2.8,14.8,3.1,14.5,3.1z"/>
<path class="st0" d="M14.5,14.4H1.7c-0.3,0-0.6-0.3-0.6-0.6v0c0-0.3,0.3-0.6,0.6-0.6h12.8c0.3,0,0.6,0.3,0.6,0.6v0
	C15.1,14.1,14.8,14.4,14.5,14.4z"/>
<path class="st0" d="M7.4,2.9H1.8c-0.4,0-0.7-0.3-0.7-0.7v0c0-0.4,0.3-0.7,0.7-0.7h5.6c0.4,0,0.7,0.3,0.7,0.7v0
	C8.1,2.6,7.8,2.9,7.4,2.9z"/>
<path class="st0" d="M3.9,8.6V2.4c0-0.4,0.3-0.7,0.7-0.7h0C5,1.6,5.3,2,5.3,2.4v6.2C5.3,9,5,9.3,4.6,9.3h0C4.2,9.3,3.9,9,3.9,8.6z"
	/>
</svg>
