<?xml version="1.0" encoding="utf-8"?>
<!-- Generator: Adobe Illustrator 26.0.0, SVG Export Plug-In . SVG Version: 6.00 Build 0)  -->
<svg version="1.1" id="图层_1" xmlns="http://www.w3.org/2000/svg" xmlns:xlink="http://www.w3.org/1999/xlink" x="0px" y="0px"
	 viewBox="0 0 16 16" style="enable-background:new 0 0 16 16;" xml:space="preserve">
<style type="text/css">
	.st0{fill:#525252;}
	.st1{fill-rule:evenodd;clip-rule:evenodd;fill:#525252;}
	.st2{clip-path:url(#SVGID_00000026125979028312526800000010196328558002955450_);}
	.st3{fill:#CCCCCC;}
</style>
<g>
	<defs>
		<rect id="SVGID_1_" x="-113.7" y="1.6" width="13.1" height="12.6"/>
	</defs>
	<clipPath id="SVGID_00000115510073552098178560000001073075415580779649_">
		<use xlink:href="#SVGID_1_"  style="overflow:visible;"/>
	</clipPath>
	<g style="clip-path:url(#SVGID_00000115510073552098178560000001073075415580779649_);">
	</g>
</g>
<path class="st1" d="M8.6,5.1H4.9c-0.5,0-0.9,0.4-0.9,1v1H2.6c-0.5,0-0.9,0.4-0.9,1c0,0.6,0.4,1,0.9,1h1.3v1c0,0.6,0.4,1,0.9,1h3.7
	c0.5,0,0.9-0.4,0.9-1v-1h4.3c0.5,0,0.9-0.4,0.9-1c0-0.6-0.4-1-0.9-1H9.5v-1C9.5,5.5,9.1,5.1,8.6,5.1z M8.6,10.1H4.9v-4h3.7V10.1z"/>
</svg>
